<?xml version="1.0" encoding="UTF-8"?>
<svg width="210mm" height="297mm" version="1.1" viewBox="0 0 210 297" xmlns="http://www.w3.org/2000/svg" xmlns:cc="http://creativecommons.org/ns#" xmlns:dc="http://purl.org/dc/elements/1.1/" xmlns:rdf="http://www.w3.org/1999/02/22-rdf-syntax-ns#">
<metadata>
<rdf:RDF>
<cc:Work rdf:about="">
<dc:format>image/svg+xml</dc:format>
<dc:type rdf:resource="http://purl.org/dc/dcmitype/StillImage"/>
<dc:title/>
</cc:Work>
</rdf:RDF>
</metadata>
<g transform="matrix(.86243 0 0 .48666 -73.262 78.957)" shape-rendering="auto">
<path d="m180.52 34.503c-37.346 0-67.765 30.989-67.765 69.036v116.55c0 38.047 30.418 69.036 67.765 69.036h49.102c37.346 0 67.761-30.989 67.761-69.036v-116.55c0-38.047-30.415-69.036-67.761-69.036zm0 22.914h49.102c25.274 0 45.269 20.374 45.269 46.121v53.146c0.0647 1.0333 0 0.96956-0.84931 0.96394l-138.79-0.91094v-53.199c0-25.748 19.998-46.121 45.272-46.121zm-45.272 122.23 138.79 0.91186c0.91516-0.0693 0.85432 5e-3 0.85432 0.97701v38.551c0 25.748-19.995 46.118-45.269 46.118h-49.102c-25.274 0-45.272-20.37-45.272-46.118z" color="#000000" color-rendering="auto" dominant-baseline="auto" fill="#130f48" image-rendering="auto" solid-color="#000000" stop-color="#000000" style="font-feature-settings:normal;font-variant-alternates:normal;font-variant-caps:normal;font-variant-east-asian:normal;font-variant-ligatures:normal;font-variant-numeric:normal;font-variant-position:normal;font-variation-settings:normal;inline-size:0;isolation:auto;mix-blend-mode:normal;paint-order:fill markers stroke;shape-margin:0;shape-padding:0;text-decoration-color:#000000;text-decoration-line:none;text-decoration-style:solid;text-indent:0;text-orientation:mixed;text-transform:none;white-space:normal"/>
<path d="m180.52 34.503c-37.346 0-67.765 31.015-67.765 69.093v116.43c0 38.078 30.419 69.096 67.765 69.096h49.012c27.925 0 51.974-17.137 62.332-41.806 0 0 2.0704-9.2896-6.4958-13.987-6.6619-3.6535-12.823 1.7339-12.823 1.7339-6.008 18.128-23.026 30.907-43.013 30.907h-49.012c-25.159 0-45.06-20.291-45.06-45.943v-116.43c0-25.652 19.901-45.94 45.06-45.94h49.012c19.594 0 35.995 12.308 42.294 29.87 0 0 6.3968 6.0978 13.156 2.6373 7.6056-3.8941 6.7826-13.88 6.7826-13.88-10.411-24.545-34.394-41.78-62.232-41.78z" color="#000000" color-rendering="auto" dominant-baseline="auto" fill="#33a0cc" image-rendering="auto" solid-color="#000000" stop-color="#000000" style="font-feature-settings:normal;font-variant-alternates:normal;font-variant-caps:normal;font-variant-east-asian:normal;font-variant-ligatures:normal;font-variant-numeric:normal;font-variant-position:normal;font-variation-settings:normal;inline-size:0;isolation:auto;mix-blend-mode:normal;paint-order:fill markers stroke;shape-margin:0;shape-padding:0;text-decoration-color:#000000;text-decoration-line:none;text-decoration-style:solid;text-indent:0;text-orientation:mixed;text-transform:none;white-space:normal"/>
</g>
</svg>